<svg xmlns="http://www.w3.org/2000/svg" height="511pt" version="1.1" viewBox="1 -83 511.99994 511" width="511pt">
<g id="surface1">
<path d="M 300.136719 26.984375 C 300.136719 12.355469 288.28125 0.5 273.65625 0.5 C 259.027344 0.5 247.171875 12.355469 247.171875 26.984375 L 247.171875 35.8125 L 300.136719 35.8125 Z M 300.136719 26.984375 " style=" stroke:none;fill-rule:nonzero;fill:rgb(92.941176%,10.980392%,14.117647%);fill-opacity:1;" />
<path d="M 0 177.050781 L 0 291.8125 L 52.964844 291.8125 C 52.964844 267.433594 72.726562 247.671875 97.101562 247.671875 C 121.480469 247.671875 141.242188 267.433594 141.242188 291.808594 L 379.585938 291.808594 C 379.585938 267.433594 399.347656 247.671875 423.722656 247.671875 C 448.101562 247.671875 467.859375 267.433594 467.859375 291.808594 L 512 291.808594 L 512 177.050781 Z M 0 177.050781 " style=" stroke:none;fill-rule:nonzero;fill:rgb(0%,30.980392%,67.45098%);fill-opacity:1;" />
<path d="M 335.449219 35.8125 L 16.648438 35.8125 C 7.457031 35.804688 0.00390625 43.25 0 52.441406 C 0 52.445312 0 52.453125 0 52.460938 L 0 177.050781 L 335.449219 177.050781 Z M 70.621094 141.742188 L 70.621094 106.429688 Z M 70.621094 141.742188 " style=" stroke:none;fill-rule:nonzero;fill:rgb(11.764706%,50.588235%,80.784314%);fill-opacity:1;" />
<path d="M 428.941406 40.691406 C 425.445312 37.511719 420.875 35.769531 416.148438 35.8125 L 335.449219 35.8125 L 335.449219 177.050781 L 512 177.050781 L 512 125.984375 C 512 121.097656 509.972656 116.425781 506.402344 113.085938 Z M 476.6875 141.742188 L 370.757812 141.742188 L 370.757812 71.121094 L 409.785156 71.121094 L 476.6875 133.65625 Z M 476.6875 141.742188 " style=" stroke:none;fill-rule:nonzero;fill:rgb(23.921569%,60.392157%,88.627451%);fill-opacity:1;" />
<path d="M 370.757812 71.121094 L 370.757812 141.742188 L 476.6875 141.742188 L 476.6875 133.65625 L 409.785156 71.121094 Z M 370.757812 71.121094 " style=" stroke:none;fill-rule:nonzero;fill:rgb(90.196078%,90.588235%,90.980392%);fill-opacity:1;" />
<path d="M 141.242188 291.808594 C 141.242188 316.1875 121.480469 335.949219 97.101562 335.949219 C 72.726562 335.949219 52.964844 316.1875 52.964844 291.808594 C 52.964844 267.433594 72.726562 247.671875 97.101562 247.671875 C 121.480469 247.671875 141.242188 267.433594 141.242188 291.808594 Z M 141.242188 291.808594 " style=" stroke:none;fill-rule:nonzero;fill:rgb(34.509804%,34.901961%,35.686275%);fill-opacity:1;" />
<path d="M 97.101562 340.363281 C 70.332031 340.363281 48.550781 318.578125 48.550781 291.808594 C 48.550781 265.042969 70.332031 243.257812 97.101562 243.257812 C 123.875 243.257812 145.65625 265.042969 145.65625 291.808594 C 145.65625 318.578125 123.875 340.363281 97.101562 340.363281 Z M 97.101562 252.085938 C 75.199219 252.085938 57.378906 269.90625 57.378906 291.808594 C 57.378906 313.714844 75.199219 331.535156 97.101562 331.535156 C 119.007812 331.535156 136.828125 313.714844 136.828125 291.808594 C 136.828125 269.90625 119.007812 252.085938 97.101562 252.085938 Z M 97.101562 252.085938 " style=" stroke:none;fill-rule:nonzero;fill:rgb(73.72549%,74.509804%,75.294118%);fill-opacity:1;" />
<path d="M 467.863281 291.808594 C 467.863281 316.1875 448.101562 335.949219 423.722656 335.949219 C 399.347656 335.949219 379.585938 316.1875 379.585938 291.808594 C 379.585938 267.433594 399.347656 247.671875 423.722656 247.671875 C 448.101562 247.671875 467.863281 267.433594 467.863281 291.808594 Z M 467.863281 291.808594 " style=" stroke:none;fill-rule:nonzero;fill:rgb(34.509804%,34.901961%,35.686275%);fill-opacity:1;" />
<path d="M 423.722656 340.363281 C 396.957031 340.363281 375.171875 318.578125 375.171875 291.808594 C 375.171875 265.042969 396.957031 243.257812 423.722656 243.257812 C 450.492188 243.257812 472.277344 265.042969 472.277344 291.808594 C 472.277344 318.578125 450.492188 340.363281 423.722656 340.363281 Z M 423.722656 252.085938 C 401.820312 252.085938 384 269.90625 384 291.808594 C 384 313.714844 401.820312 331.535156 423.722656 331.535156 C 445.628906 331.535156 463.449219 313.714844 463.449219 291.808594 C 463.449219 269.90625 445.628906 252.085938 423.722656 252.085938 Z M 423.722656 252.085938 " style=" stroke:none;fill-rule:nonzero;fill:rgb(34.509804%,34.901961%,35.686275%);fill-opacity:1;" />
<path d="M 423.722656 344.777344 C 394.472656 344.777344 370.757812 321.0625 370.757812 291.808594 C 370.757812 262.558594 394.472656 238.84375 423.722656 238.84375 C 452.976562 238.84375 476.6875 262.558594 476.6875 291.808594 C 476.660156 321.050781 452.964844 344.746094 423.722656 344.777344 Z M 423.722656 256.5 C 404.222656 256.5 388.414062 272.308594 388.414062 291.8125 C 388.414062 311.3125 404.222656 327.121094 423.722656 327.121094 C 443.226562 327.121094 459.035156 311.3125 459.035156 291.8125 C 459.035156 272.308594 443.226562 256.5 423.722656 256.5 Z M 423.722656 256.5 " style=" stroke:none;fill-rule:nonzero;fill:rgb(25.490196%,25.098039%,25.882353%);fill-opacity:1;" />
<path d="M 97.101562 344.777344 C 67.851562 344.777344 44.136719 321.0625 44.136719 291.808594 C 44.136719 262.558594 67.851562 238.84375 97.101562 238.84375 C 126.355469 238.84375 150.070312 262.558594 150.070312 291.808594 C 150.039062 321.050781 126.34375 344.746094 97.101562 344.777344 Z M 97.101562 256.5 C 77.601562 256.5 61.792969 272.308594 61.792969 291.8125 C 61.792969 311.3125 77.601562 327.121094 97.101562 327.121094 C 116.605469 327.121094 132.414062 311.3125 132.414062 291.808594 C 132.414062 272.308594 116.605469 256.5 97.101562 256.5 Z M 97.101562 256.5 " style=" stroke:none;fill-rule:nonzero;fill:rgb(25.490196%,25.098039%,25.882353%);fill-opacity:1;" />
<path d="M 61.792969 71.121094 L 79.449219 71.121094 L 79.449219 141.742188 L 61.792969 141.742188 Z M 61.792969 71.121094 " style=" stroke:none;fill-rule:nonzero;fill:rgb(80.392157%,16.470588%,0%);fill-opacity:1;" />
<path d="M 35.3125 97.605469 L 105.929688 97.605469 L 105.929688 115.257812 L 35.3125 115.257812 Z M 35.3125 97.605469 " style=" stroke:none;fill-rule:nonzero;fill:rgb(80.392157%,16.470588%,0%);fill-opacity:1;" />
<path d="M 300.136719 88.777344 L 185.378906 88.777344 C 180.503906 88.777344 176.550781 84.824219 176.550781 79.949219 C 176.550781 75.070312 180.503906 71.121094 185.378906 71.121094 L 300.136719 71.121094 C 305.011719 71.121094 308.964844 75.070312 308.964844 79.949219 C 308.964844 84.824219 305.011719 88.777344 300.136719 88.777344 Z M 300.136719 88.777344 " style=" stroke:none;fill-rule:nonzero;fill:rgb(0%,24.705882%,54.117647%);fill-opacity:1;" />
<path d="M 300.136719 115.257812 L 185.378906 115.257812 C 180.503906 115.257812 176.550781 111.308594 176.550781 106.429688 C 176.550781 101.554688 180.503906 97.601562 185.378906 97.601562 L 300.136719 97.601562 C 305.011719 97.601562 308.964844 101.554688 308.964844 106.429688 C 308.964844 111.308594 305.011719 115.257812 300.136719 115.257812 Z M 300.136719 115.257812 " style=" stroke:none;fill-rule:nonzero;fill:rgb(0%,24.705882%,54.117647%);fill-opacity:1;" />
</g>
</svg>