<svg height="480pt" viewBox="0 -80 480 479" width="480pt" xmlns="http://www.w3.org/2000/svg"><path d="m8 168.5v104h48c0-22.089844 17.910156-40 40-40s40 17.910156 40 40h216c0-22.089844 17.910156-40 40-40s40 17.910156 40 40h40v-104zm0 0" fill="#9bc9ff"/><path d="m280 40.5h-256.910156c-4.003906-.003906-7.84375 1.585938-10.671875 4.417969-2.832031 2.828125-4.421875 6.667969-4.417969 10.671875v112.910156h304v-128zm0 0" fill="#9bc9ff"/><path d="m396.726562 44.925781c-3.167968-2.882812-7.308593-4.464843-11.589843-4.425781h-73.136719v128h160v-46.28125c0-4.429688-1.835938-8.660156-5.070312-11.6875zm43.273438 91.574219h-96v-64h35.367188l60.632812 56.671875zm0 0" fill="#9bc9ff"/><g fill="#1e81ce"><path d="m104 96.5h-24v-24h-16v24h-24v16h24v24h16v-24h24zm0 0"/><path d="m472.382812 104.683594-70.191406-65.597656c-4.660156-4.253907-10.746094-6.605469-17.054687-6.585938h-97.136719c0-17.671875-14.328125-32-32-32s-32 14.328125-32 32h-200.910156c-12.746094.011719-23.0781252 10.34375-23.089844 23.089844v216.910156c0 4.417969 3.582031 8 8 8h40.71875c3.882812 23.085938 23.871094 39.992188 47.28125 39.992188s43.398438-16.90625 47.28125-39.992188h201.4375c3.882812 23.085938 23.871094 39.992188 47.28125 39.992188s43.398438-16.90625 47.28125-39.992188h32.71875c4.417969 0 8-3.582031 8-8v-150.273438c-.015625-6.644531-2.769531-12.992187-7.617188-17.542968zm-216.382812-88.183594c8.835938 0 16 7.164062 16 16h-32c0-8.835938 7.164062-16 16-16zm-240 39.089844c0-3.917969 3.171875-7.089844 7.089844-7.089844h280.910156v112h-288zm80 248.910156c-17.671875 0-32-14.328125-32-32s14.328125-32 32-32 32 14.328125 32 32-14.328125 32-32 32zm296 0c-17.671875 0-32-14.328125-32-32s14.328125-32 32-32 32 14.328125 32 32-14.328125 32-32 32zm72-40h-24.664062c0-.175781-.105469-.328125-.136719-.503906-.4375-2.433594-1.066407-4.828125-1.878907-7.160156-.136718-.398438-.28125-.800782-.433593-1.175782-.847657-2.300781-1.878907-4.527344-3.078125-6.664062-.160156-.289063-.34375-.550782-.503906-.800782-1.285157-2.195312-2.738282-4.289062-4.351563-6.253906l-.089844-.105468c-1.632812-1.945313-3.417969-3.757813-5.34375-5.414063-.199219-.179687-.382812-.371094-.589843-.546875-1.878907-1.570312-3.871094-2.996094-5.960938-4.261719l-1.039062-.632812c-2.097657-1.207031-4.285157-2.253907-6.539063-3.136719l-1.183594-.441406c-2.34375-.847656-4.75-1.511719-7.199219-1.992188-.320312-.0625-.640624-.09375-.960937-.148437-5.324219-.972657-10.785156-.972657-16.109375 0-.320312.054687-.640625.085937-.960938.148437-2.449218.480469-4.855468 1.144532-7.199218 1.992188l-1.183594.441406c-2.253906.882812-4.441406 1.929688-6.539062 3.136719l-1.039063.632812c-2.089844 1.265625-4.082031 2.691407-5.960937 4.261719-.207032.175781-.390626.367188-.589844.546875-1.925782 1.65625-3.710938 3.46875-5.34375 5.414063l-.089844.105468c-1.613281 1.964844-3.066406 4.058594-4.351562 6.253906-.160157.28125-.34375.542969-.503907.800782-1.199219 2.136718-2.230469 4.363281-3.078125 6.664062-.152344.390625-.296875.800782-.433594 1.175782-.816406 2.332031-1.441406 4.726562-1.878906 7.160156 0 .175781-.105468.328125-.136718.503906h-201.3125c0-.175781-.105469-.328125-.136719-.503906-.4375-2.433594-1.066407-4.828125-1.878907-7.160156-.136718-.398438-.28125-.800782-.433593-1.175782-.847657-2.300781-1.878907-4.527344-3.078125-6.664062-.160156-.289063-.34375-.550782-.503906-.800782-1.285157-2.195312-2.738282-4.289062-4.351563-6.253906l-.089844-.105468c-1.632812-1.945313-3.417969-3.757813-5.34375-5.414063-.199219-.179687-.382812-.371094-.589843-.546875-1.878907-1.570312-3.871094-2.996094-5.960938-4.261719l-1.039062-.632812c-2.097657-1.207031-4.285157-2.253907-6.539063-3.136719l-1.183594-.441406c-2.34375-.847656-4.75-1.511719-7.199219-1.992188-.320312-.0625-.640624-.09375-.960937-.148437-5.324219-.972657-10.785156-.972657-16.109375 0-.320312.054687-.640625.085937-.960938.148437-2.449218.480469-4.855468 1.144532-7.199218 1.992188l-1.183594.441406c-2.253906.882812-4.441406 1.929688-6.539062 3.136719l-1.039063.632812c-2.089844 1.265625-4.082031 2.691407-5.960937 4.261719-.207032.175781-.390626.367188-.589844.546875-1.925782 1.65625-3.710938 3.46875-5.34375 5.414063l-.089844.105468c-1.613281 1.964844-3.066406 4.058594-4.351562 6.253906-.160157.28125-.34375.542969-.503907.800782-1.199219 2.136718-2.230469 4.363281-3.078125 6.664062-.152344.390625-.296875.800782-.433594 1.175782-.816406 2.332031-1.441406 4.726562-1.878906 7.160156 0 .175781-.105468.328125-.136718.503906h-32.648438v-88h448zm0-104h-144v-112h65.136719c2.253906-.035156 4.441406.773438 6.136719 2.265625l70.183593 65.597656c1.621094 1.515625 2.542969 3.636719 2.542969 5.855469zm0 0"/><path d="m344 144.5h96c4.417969 0 8-3.582031 8-8v-7.328125c0-2.214844-.917969-4.328125-2.535156-5.839844l-60.664063-56.671875c-1.480469-1.386718-3.433593-2.160156-5.464843-2.160156h-35.335938c-4.417969 0-8 3.582031-8 8v64c0 4.417969 3.582031 8 8 8zm8-64h24.207031l51.359375 48h-75.566406zm0 0"/><path d="m280 72.5h-104c-4.417969 0-8 3.582031-8 8s3.582031 8 8 8h104c4.417969 0 8-3.582031 8-8s-3.582031-8-8-8zm0 0"/><path d="m280 96.5h-104c-4.417969 0-8 3.582031-8 8s3.582031 8 8 8h104c4.417969 0 8-3.582031 8-8s-3.582031-8-8-8zm0 0"/></g></svg>