<svg height="480pt" viewBox="0 -72 480 480" width="480pt" xmlns="http://www.w3.org/2000/svg"><path d="m405.601562 34.355469c-35.171874-35.203125-92.222656-35.203125-127.394531 0l-38.207031 38.285156-38.191406-38.285156c-35.269532-35.183594-92.382813-35.113281-127.566406.15625-35.179688 35.269531-35.109376 92.378906.15625 127.5625l165.601562 165.878906 165.601562-165.878906c35.203126-35.285157 35.203126-92.410157 0-127.695313zm0 0" fill="#9bc9ff"/><path d="m480 127.953125h-44.601562c3.046874-9.628906 4.601562-19.671875 4.601562-29.773437.035156-39.691407-23.851562-75.488282-60.515625-90.6875-36.664063-15.203126-78.875-6.808594-106.933594 21.261718l-32.550781 32.558594-32.542969-32.605469c-32.011719-31.992187-81.757812-37.929687-120.398437-14.367187-38.640625 23.566406-56.140625 70.507812-42.355469 113.613281h-44.703125v16h51.273438c4.609374 8.765625 10.519531 16.78125 17.527343 23.777344l165.597657 165.878906c1.503906 1.503906 3.539062 2.347656 5.660156 2.347656 2.125 0 4.160156-.84375 5.660156-2.347656l165.601562-165.878906c6.972657-7.003907 12.847657-15.019531 17.433594-23.777344h51.246094zm-399.921875-87.925781c15.375-15.425782 36.257813-24.097656 58.039063-24.097656 21.777343 0 42.660156 8.671874 58.035156 24.097656l38.199218 38.261718c3.175782 3.007813 8.144532 3.007813 11.320313 0l38.191406-38.253906c23.492188-23.484375 58.820313-30.496094 89.503907-17.769531 30.679687 12.730469 50.667968 42.695313 50.632812 75.914063-.015625 10.183593-1.914062 20.28125-5.601562 29.773437h-83.300782c-2.882812 0-5.542968 1.550781-6.960937 4.058594l-11.152344 19.703125-11.152344-19.703125c-1.289062-2.277344-3.605469-3.777344-6.210937-4.023438-2.601563-.246093-5.164063.796875-6.851563 2.789063l-45.570312 53.648437-31.414063-83.296875c-1.089844-2.910156-3.765625-4.929687-6.863281-5.175781-3.097656-.277344-6.066406 1.289063-7.585937 4l-31.359376 55.417969-28.800781-25.472656c-1.460937-1.289063-3.34375-2-5.296875-2h-74.277344c-11.71875-30.371094-4.480468-64.792969 18.476563-87.871094zm319.867187 116.398437-159.945312 160.199219-159.921875-160.199219c-3.796875-3.816406-7.210937-7.992187-10.199219-12.472656h62.921875l33.953125 30c1.804688 1.597656 4.238282 2.292969 6.617188 1.894531 2.378906-.398437 4.449218-1.851562 5.636718-3.949218l27.816407-49.136719 30.191406 80c1 2.660156 3.328125 4.589843 6.125 5.070312 2.800781.484375 5.644531-.550781 7.476563-2.71875l46.925781-55.261719 12.464843 22.03125c1.539063 2.347657 4.15625 3.761719 6.964844 3.761719 2.804688 0 5.425782-1.414062 6.964844-3.761719l15.824219-27.929687h70.398437c-2.996094 4.476563-6.417968 8.65625-10.214844 12.472656zm0 0" fill="#1e81ce"/></svg>