<?xml version="1.0"?>
<svg xmlns="http://www.w3.org/2000/svg" xmlns:xlink="http://www.w3.org/1999/xlink" id="Layer_1" data-name="Layer 1" viewBox="0 0 512 512" width="512" height="512"><defs><linearGradient id="linear-gradient" x1="180.515" y1="493" x2="180.515" y2="24.385" gradientUnits="userSpaceOnUse"><stop offset="0.322" stop-color="#a163f5"/><stop offset="0.466" stop-color="#b074ee"/><stop offset="0.752" stop-color="#d8a1dd"/><stop offset="0.898" stop-color="#efbad3"/></linearGradient><linearGradient id="linear-gradient-2" x1="180.516" y1="493" x2="180.516" y2="24.386" xlink:href="#linear-gradient"/><linearGradient id="linear-gradient-3" x1="255.999" y1="493" x2="255.999" y2="24.385" xlink:href="#linear-gradient"/><linearGradient id="linear-gradient-4" x1="179.676" y1="493" x2="179.676" y2="24.386" xlink:href="#linear-gradient"/></defs><title>eye scan</title><path d="M221.756,163.362c-25.949-13.357-59.205-13.3-82.751.145C119,174.935,110.9,185.4,110.562,185.844a7,7,0,0,0-.336,7.994c.8,1.258,20.146,30.789,70.186,30.789,47.428,0,69.236-29.18,70.142-30.422a7,7,0,0,0,.488-7.474C250.4,185.551,244.106,174.866,221.756,163.362Zm-25.994,5.6a18.714,18.714,0,1,1-33.956,10.347,18.492,18.492,0,0,1,3.717-10.683A78.574,78.574,0,0,1,195.762,168.958ZM125.435,190.43a107.83,107.83,0,0,1,20.512-14.765c.759-.433,1.533-.843,2.316-1.243a33.493,33.493,0,0,0-.452,4.511,32.759,32.759,0,0,0,19.76,30.908C144.168,206.906,131.1,196.382,125.435,190.43Zm68.478,19.236a32.741,32.741,0,0,0,18.9-35.094c.853.4,1.7.807,2.54,1.238,10.877,5.6,17.086,10.763,20.351,14.06C229.75,195.724,216.16,206.421,193.913,209.666Z" style="fill:url(#linear-gradient)"/><path d="M256.675,157.629c-42.608-34.883-81.92-32.946-107.4-25.18-27.437,8.365-44.649,24.876-45.369,25.575a7,7,0,0,0,9.746,10.051,108.458,108.458,0,0,1,40.228-22.392c32.131-9.6,63.73-1.94,93.921,22.778a7,7,0,0,0,8.869-10.832Z" style="fill:url(#linear-gradient-2)"/><path d="M477.19,409.358c-7.925-7.926-19.465-8.74-29.63-2.824L336.738,295.711c5.321-10.244,4.051-22.754-4.048-30.855l-11.825-11.824c31.84-60.224,22.451-136.708-28.175-187.337h0c-62.163-62.161-163.307-62.159-225.467,0a159.459,159.459,0,0,0,185.5,254.594l12.268,12.268c4.1,4.1,10.064,6.326,16.727,6.326a31.407,31.407,0,0,0,3.606-.212,34.336,34.336,0,0,0,11.009-3.253L407.776,446.864c-5.89,10.725-5.584,22.9,1.714,30.2l11.07,11.069a11.009,11.009,0,0,0,15.549-.007l52.145-52.144a11,11,0,0,0,0-15.557ZM416.6,435.891,307.551,326.838l20.258-20.256,109.05,109.052ZM77.12,281.264A145.43,145.43,0,0,1,282.789,75.6c56.7,56.7,56.7,148.964,0,205.668S133.823,337.967,77.12,281.264Zm206.581,43.5c-3.766.439-7.056-.349-8.812-2.107l-9.569-9.568a159.8,159.8,0,0,0,48.206-47.6l9.263,9.264c4.1,4.1,4.777,12.266-1.273,18.316l-26.078,26.078A20.157,20.157,0,0,1,283.7,324.765ZM428.331,476.1l-8.94-8.94c-3.664-3.665-1.307-12.951,4.85-19.108l26.077-26.078c3.452-3.451,7.322-5.243,10.774-5.243a8.556,8.556,0,0,1,6.2,2.527l8.941,8.94Z" style="fill:url(#linear-gradient-3)"/><path d="M264.208,94.177h0a119.488,119.488,0,1,0,0,169.061A119.683,119.683,0,0,0,264.207,94.176Zm-9.9,159.161a105.494,105.494,0,1,1,0-149.262A105.663,105.663,0,0,1,254.308,253.338Z" style="fill:url(#linear-gradient-4)"/></svg>
