<?xml version="1.0" encoding="iso-8859-1"?>
<!-- Generator: Adobe Illustrator 19.0.0, SVG Export Plug-In . SVG Version: 6.00 Build 0)  -->
<svg xmlns="http://www.w3.org/2000/svg" xmlns:xlink="http://www.w3.org/1999/xlink" version="1.1" id="Layer_1" x="0px" y="0px" viewBox="0 0 512 512" style="enable-background:new 0 0 512 512;" xml:space="preserve" width="512" height="512">
<g>
	<path style="fill:#64E1DC;" d="M451,405v107H61V405c0-41.4,33.6-75,75-75h46.5l73.5,90l73.5-90H376C417.4,330,451,363.6,451,405z"/>
	<path style="fill:#00C8C8;" d="M451,405v107H256v-92l73.5-90H376C417.4,330,451,363.6,451,405z"/>
	<path style="fill:#FFB99C;" d="M331,345c0,41.4-33.6,75-75,75s-75-33.6-75-75c0-5.101,0.601-10.201,1.5-15H211v-18.9h90V330h28.5   C330.399,334.799,331,339.899,331,345z"/>
	<path style="fill:#FF9468;" d="M331,345c0,41.4-33.6,75-75,75V311.1h45V330h28.5C330.399,334.799,331,339.899,331,345z"/>
	<path style="fill:#FFB99C;" d="M113.5,225C84.555,225,61,201.445,61,172.5S84.555,120,113.5,120H151v105H113.5z"/>
	<path style="fill:#FF9468;" d="M398.5,225c28.945,0,52.5-23.555,52.5-52.5S427.445,120,398.5,120H361v105H398.5z"/>
	<path style="fill:#FFCEBF;" d="M391,120v75c0,10.199-1.5,20.4-3.6,30L256,255l-131.4-30c-2.1-9.6-3.6-19.801-3.6-30v-75l135-30   L391,120z"/>
	<path style="fill:#FFB99C;" d="M391,120v75c0,10.199-1.5,20.4-3.6,30L256,255V90L391,120z"/>
	<path style="fill:#64E1DC;" d="M391,90l-17.401,15L391,120H121l15.601-15L121,90V45c0-24.901,20.099-45,45-45h180   c24.901,0,45,20.099,45,45V90z"/>
	<path style="fill:#00C8C8;" d="M391,90l-17.401,15L391,120H256V0h90c24.901,0,45,20.099,45,45V90z"/>
	<path style="fill:#E0F4FF;" d="M387.4,225c-13.801,60-67.2,105-131.4,105s-117.599-45-131.4-105H387.4z"/>
	<path style="fill:#BBDCFF;" d="M387.4,225c-13.801,60-67.2,105-131.4,105V225H387.4z"/>
	<rect x="331" y="420" style="fill:#47568C;" width="60" height="30"/>
	<rect x="121" y="90" style="fill:#61729B;" width="270" height="30"/>
	<rect x="256" y="90" style="fill:#2C3B73;" width="135" height="30"/>
	<path style="fill:#E0F4FF;" d="M316,60c0,32.999-27.001,60-60,60s-60-27.001-60-60c0-33.001,27.001-60,60-60S316,26.999,316,60z"/>
	<path style="fill:#BBDCFF;" d="M316,60c0,32.999-27.001,60-60,60V0C288.999,0,316,26.999,316,60z"/>
	<path style="fill:#BBDCFF;" d="M256,90c-16.542,0-30-13.458-30-30s13.458-30,30-30s30,13.458,30,30S272.542,90,256,90z"/>
	<path style="fill:#9ABADB;" d="M286,60c0-16.542-13.458-30-30-30v60C272.542,90,286,76.542,286,60z"/>
</g>















</svg>
